<mxfile host="app.diagrams.net" modified="2022-07-25T12:10:18.164Z" agent="5.0 (Macintosh)" etag="qA1AiRrdgdy3IxvH0KxZ" version="20.0.3" type="github">
  <diagram id="GDaDlvehyk0IUpQhXFB_" name="Page-1">
    <mxGraphModel dx="1226" dy="1064" grid="1" gridSize="10" guides="1" tooltips="1" connect="1" arrows="1" fold="1" page="1" pageScale="1" pageWidth="850" pageHeight="1100" math="0" shadow="0">
      <root>
        <mxCell id="0" />
        <mxCell id="1" parent="0" />
        <mxCell id="qs7_fkmbpAEoLOePlhtD-6" style="edgeStyle=orthogonalEdgeStyle;rounded=0;orthogonalLoop=1;jettySize=auto;html=1;exitX=0.5;exitY=1;exitDx=0;exitDy=0;entryX=0.5;entryY=0;entryDx=0;entryDy=0;entryPerimeter=0;curved=1;" edge="1" parent="1" source="qs7_fkmbpAEoLOePlhtD-1" target="qs7_fkmbpAEoLOePlhtD-4">
          <mxGeometry relative="1" as="geometry" />
        </mxCell>
        <mxCell id="qs7_fkmbpAEoLOePlhtD-1" value="kube.api.server" style="rounded=0;whiteSpace=wrap;html=1;" vertex="1" parent="1">
          <mxGeometry x="160" y="450" width="120" height="70" as="geometry" />
        </mxCell>
        <mxCell id="qs7_fkmbpAEoLOePlhtD-7" style="edgeStyle=orthogonalEdgeStyle;rounded=0;orthogonalLoop=1;jettySize=auto;html=1;exitX=0.5;exitY=0;exitDx=0;exitDy=0;startArrow=classic;startFill=1;elbow=vertical;curved=1;entryX=0.5;entryY=1;entryDx=0;entryDy=0;" edge="1" parent="1" source="qs7_fkmbpAEoLOePlhtD-2" target="qs7_fkmbpAEoLOePlhtD-1">
          <mxGeometry relative="1" as="geometry">
            <mxPoint x="230" y="530" as="targetPoint" />
          </mxGeometry>
        </mxCell>
        <mxCell id="qs7_fkmbpAEoLOePlhtD-2" value="kube-scheduler" style="rounded=0;whiteSpace=wrap;html=1;" vertex="1" parent="1">
          <mxGeometry x="230" y="590" width="120" height="60" as="geometry" />
        </mxCell>
        <mxCell id="qs7_fkmbpAEoLOePlhtD-3" value="kube-controller manager" style="rounded=0;whiteSpace=wrap;html=1;" vertex="1" parent="1">
          <mxGeometry x="160" y="350" width="120" height="60" as="geometry" />
        </mxCell>
        <mxCell id="qs7_fkmbpAEoLOePlhtD-4" value="etcd" style="shape=cylinder3;whiteSpace=wrap;html=1;boundedLbl=1;backgroundOutline=1;size=15;" vertex="1" parent="1">
          <mxGeometry x="130" y="580" width="60" height="80" as="geometry" />
        </mxCell>
        <mxCell id="qs7_fkmbpAEoLOePlhtD-10" value="" style="sketch=0;aspect=fixed;pointerEvents=1;shadow=0;dashed=0;html=1;strokeColor=none;labelPosition=center;verticalLabelPosition=bottom;verticalAlign=top;align=center;fillColor=#00188D;shape=mxgraph.azure.server" vertex="1" parent="1">
          <mxGeometry x="360" y="480" width="110" height="33" as="geometry" />
        </mxCell>
        <mxCell id="qs7_fkmbpAEoLOePlhtD-11" value="" style="sketch=0;aspect=fixed;pointerEvents=1;shadow=0;dashed=1;html=1;strokeColor=none;labelPosition=center;verticalLabelPosition=bottom;verticalAlign=top;align=center;fillColor=#CCCCCC;shape=mxgraph.azure.server" vertex="1" parent="1">
          <mxGeometry x="520" y="480" width="110" height="33" as="geometry" />
        </mxCell>
      </root>
    </mxGraphModel>
  </diagram>
</mxfile>
